<svg version="1.1" class="notesLogo" xmlns="http://www.w3.org/2000/svg" xmlns:xlink="http://www.w3.org/1999/xlink" x="0px" y="0px" viewBox="0 0 841.89 595.28" style="enable-background:new 0 0 841.89 595.28;">
  <path fill="#fff" d="M642.32,171.7c-7.25-15.09-16.05-29.32-26.19-42.46L385.52,322.12l1.85,1.85
    c15.22,17.78,47.25,23.97,65.03,8.75L612.1,197.57c9.79,23.36,15.31,48.95,15.58,75.8c1.11,110.16-85.45,200.36-195.57,203.54
    c-114.96,3.33-209.03-89.63-207.52-204.19c1.48-112.19,93.3-200.95,205.48-198.8c30.89,0.59,60.07,8.13,86.06,21.12L364.62,224.73
    c-19.08,16.34-19.78,41.71-6.77,62.35l227.4-190.95c-7.33-6.52-15.07-12.59-23.17-18.17c-4.84-3.35-9.81-6.51-14.9-9.49
    c-35.69-20.92-77.27-32.88-121.65-32.77C293.15,36.03,186.4,143.06,186.4,275.44c0,132.47,107.44,239.85,239.94,239.74
    c132.89-0.11,240.91-109.42,239.52-242.3C665.48,236.66,657.07,202.37,642.32,171.7z"/>
  <path fill="#ffff" d="M371.98,306.98l-2.77-3.33c-4.55-5.46-3.82-13.57,1.64-18.12l211.43-176.76c5.46-4.55,13.57-3.82,18.12,1.64
    l2.77,3.33c4.55,5.46,3.82,13.57-1.64,18.12L390.11,308.62C384.65,313.17,376.53,312.44,371.98,306.98z"/>
  <path fill="#fff" d="M353.88,359.24l0,0.04c0,0.02,0,0.06-0.01,0.1c-0.02,1.37-0.24,12.51-2.17,19.18l-47.37,10.18
    c-15.59,3.35-28.46-12.3-22.16-26.96l19.35-45.01c6.41-4.91,18.88-1.66,18.88-1.66C338.64,321.78,352.27,338.59,353.88,359.24z"/>
  <path fill="#fff" d="M351.76,235.09l-41.44,103.52c0,0-12.47-3.25-18.88,1.66l2.04-4.76l34.34-79.89
    C329.21,251.11,339.63,239.57,351.76,235.09z"/>
  <path fill="#fff" d="M445.38,341.37c-7.91,12.66-15,19.46-21.69,21.7l-90.59,19.46c1.93-6.67,2.15-17.8,2.17-19.18
    c0.01-0.04,0.01-0.07,0.01-0.1L445.38,341.37z"/>
  <path fill="#FFFFFF" d="M328,267.16L328,267.16z"/>
</svg>